/* XPM */
static char *_9742a6318814165defdb41c27cedc02WPlmtQ4R8PvoXMXE[] = {
/* columns rows colors chars-per-pixel */
"16 16 32 1 ",
"  c None",
". c #414141",
"X c gray26",
"o c #434343",
"O c gray27",
"+ c gray28",
"@ c #484848",
"# c #494949",
"$ c gray29",
"% c #4B4B4B",
"& c #4C4C4C",
"* c gray30",
"= c #4E4E4E",
"- c gray31",
"; c #505050",
": c #515151",
"> c gray32",
", c #535353",
"< c gray33",
"1 c #555555",
"2 c #565656",
"3 c gray34",
"4 c #585858",
"5 c #5A5A5A",
"6 c #5B5B5B",
"7 c gray36",
"8 c #5D5D5D",
"9 c gray38",
"0 c #626262",
"q c gray39",
"w c #646464",
"e c gray40",
/* pixels */
"                ",
"                ",
"                ",
"   <w      w<   ",
"   :+o    +*:   ",
"    ::    <*    ",
"   <*<*  *4*:   ",
"   <@@<  4@@:   ",
"  *7:q7::7q:4*  ",
"  ::  ::<*  :*  ",
" :7@   qq   @4* ",
" @:    oo    <@ ",
" 7:          :7 ",
"                ",
"                ",
"                "
};
