/* XPM */
static char *d9fe1d54badf4a6285bb3d676fd4697dUm9w2Moy2XmlF4pq[] = {
/* columns rows colors chars-per-pixel */
"64 64 239 2 ",
"   c None",
".  c black",
"X  c #010101",
"o  c #020202",
"O  c gray1",
"+  c #040404",
"@  c gray2",
"#  c #060606",
"$  c #070707",
"%  c gray3",
"&  c #090909",
"*  c gray4",
"=  c #0B0B0B",
"-  c #0C0C0C",
";  c gray5",
":  c #0E0E0E",
">  c gray6",
",  c #101010",
"<  c #111111",
"1  c gray7",
"2  c #131313",
"3  c gray8",
"4  c #151515",
"5  c #161616",
"6  c gray9",
"7  c #181818",
"8  c #191919",
"9  c gray10",
"0  c #1B1B1B",
"q  c gray11",
"w  c #1D1D1D",
"e  c #1E1E1E",
"r  c gray12",
"t  c #202020",
"y  c gray13",
"u  c #222222",
"i  c #232323",
"p  c gray14",
"a  c #252525",
"s  c gray15",
"d  c #272727",
"f  c #282828",
"g  c gray16",
"h  c #2A2A2A",
"j  c gray17",
"k  c #2C2C2C",
"l  c #2D2D2D",
"z  c gray18",
"x  c #2F2F2F",
"c  c gray19",
"v  c #313131",
"b  c #323232",
"n  c gray20",
"m  c #343434",
"M  c #353535",
"N  c gray21",
"B  c #373737",
"V  c gray22",
"C  c #393939",
"Z  c #3A3A3A",
"A  c gray23",
"S  c #3C3C3C",
"D  c gray24",
"F  c #3E3E3E",
"G  c #3F3F3F",
"H  c gray25",
"J  c #414141",
"K  c gray26",
"L  c #434343",
"P  c #444444",
"I  c gray27",
"U  c #464646",
"Y  c gray28",
"T  c #484848",
"R  c #494949",
"E  c gray29",
"W  c #4B4B4B",
"Q  c #4C4C4C",
"!  c gray30",
"~  c #4E4E4E",
"^  c gray31",
"/  c #505050",
"(  c #515151",
")  c gray32",
"_  c #555555",
"`  c #565656",
"'  c gray34",
"]  c #585858",
"[  c gray35",
"{  c #5A5A5A",
"}  c #5B5B5B",
"|  c gray36",
" . c #5D5D5D",
".. c gray37",
"X. c #5F5F5F",
"o. c #606060",
"O. c gray38",
"+. c #626262",
"@. c gray39",
"#. c #646464",
"$. c #656565",
"%. c gray40",
"&. c #676767",
"*. c #686868",
"=. c DimGray",
"-. c #6A6A6A",
";. c gray42",
":. c #6C6C6C",
">. c #6D6D6D",
",. c gray43",
"<. c #6F6F6F",
"1. c gray44",
"2. c #717171",
"3. c #727272",
"4. c gray45",
"5. c #747474",
"6. c gray46",
"7. c #767676",
"8. c #777777",
"9. c gray47",
"0. c #797979",
"q. c gray48",
"w. c #7B7B7B",
"e. c #7C7C7C",
"r. c #7E7E7E",
"t. c gray50",
"y. c #808080",
"u. c #818181",
"i. c #838383",
"p. c #848484",
"a. c gray52",
"s. c #868686",
"d. c gray53",
"f. c #888888",
"g. c #898989",
"h. c gray54",
"j. c gray55",
"k. c #8D8D8D",
"l. c #8E8E8E",
"z. c gray56",
"x. c #909090",
"c. c #929292",
"v. c #939393",
"b. c gray58",
"n. c gray59",
"m. c #979797",
"M. c #989898",
"N. c gray60",
"B. c #9A9A9A",
"V. c #9B9B9B",
"C. c gray61",
"Z. c #9D9D9D",
"A. c gray62",
"S. c #9F9F9F",
"D. c #A0A0A0",
"F. c gray63",
"G. c #A2A2A2",
"H. c gray64",
"J. c #A4A4A4",
"K. c #A5A5A5",
"L. c gray65",
"P. c gray66",
"I. c #AAAAAA",
"U. c gray67",
"Y. c #ACACAC",
"T. c gray68",
"R. c #AEAEAE",
"E. c #AFAFAF",
"W. c gray69",
"Q. c #B1B1B1",
"!. c #B2B2B2",
"~. c gray70",
"^. c #B4B4B4",
"/. c gray71",
"(. c #B6B6B6",
"). c #B7B7B7",
"_. c gray72",
"`. c #B9B9B9",
"'. c gray73",
"]. c #BCBCBC",
"[. c gray74",
"{. c gray",
"}. c gray75",
"|. c #C0C0C0",
" X c #C1C1C1",
".X c gray76",
"XX c #C3C3C3",
"oX c gray77",
"OX c #C5C5C5",
"+X c #C6C6C6",
"@X c gray78",
"#X c #C8C8C8",
"$X c #CACACA",
"%X c gray80",
"&X c #CDCDCD",
"*X c #CECECE",
"=X c gray81",
"-X c gray82",
";X c #D2D2D2",
":X c LightGray",
">X c gray83",
",X c #D5D5D5",
"<X c gray84",
"1X c #D7D7D7",
"2X c #D8D8D8",
"3X c gray85",
"4X c #DADADA",
"5X c gray86",
"6X c gainsboro",
"7X c #DDDDDD",
"8X c gray87",
"9X c gray88",
"0X c #E1E1E1",
"qX c #E2E2E2",
"wX c gray89",
"eX c #E4E4E4",
"rX c gray90",
"tX c #E6E6E6",
"yX c gray91",
"uX c #E9E9E9",
"iX c #EAEAEA",
"pX c gray92",
"aX c gray93",
"sX c #EEEEEE",
"dX c #EFEFEF",
"fX c gray94",
"gX c #F1F1F1",
"hX c gray95",
"jX c #F3F3F3",
"kX c #F4F4F4",
"lX c gray96",
"zX c #F6F6F6",
"xX c #F8F8F8",
"cX c #F9F9F9",
"vX c gray98",
"bX c #FBFBFB",
"nX c #FDFDFD",
"mX c #FEFEFE",
"MX c white",
/* pixels */
"                                                                                                                                ",
"                                                                                                                                ",
"                                                                                                                                ",
"                                                                                                                                ",
"                                                                                                                                ",
"                                                                                                                                ",
"                                                                                                                                ",
"                                                                                                                                ",
"                                                                                                                                ",
"                                                                                                                                ",
"                                                                                                                                ",
"                                                                                                                                ",
"                          |.                                                                        |.                          ",
"                        t 2 C       m.t ^.                                            m.t ^.    +Xl 2 h                         ",
"                        ~ . @ d.    ( . @.                                            I . -.    <.. . @.                        ",
"                        ^.6 . b tX|.6 . 7 `.                                        G.; . d 5X-Xt . d #X                        ",
"                          ... . M.M.. . . ..                                        I . . ; [.r.. . 6.                          ",
"                          [.w . m [.t . . 7 !.                                    M.& . . W +Xt . h -X                          ",
"                            #.. . k.k.C . . _                                     H . 2 H !.w.. . r.                            ",
"                            #Xt . l <X-Xd . 2 Y.                                m.& . { tX+Xw . l 5X                            ",
"                              6.. . r.MXr.. . (                               tXC . 6 ^.MX#.. @ g.                              ",
"                              +Xl . t <XqXl . 2 L.                            c.& . ..MX[.6 . S <X                              ",
"                            m.<.g.@ . 1.MXk.@ . W                           qXm . 7 [.MX{ . & M.-.Y.                            ",
"                            _ 2 Y.m . w #XiXC . ; Z.                        g.@ . #.MX`.6 . I L.; -.                            ",
"                          |.w . r.M.@ . #.MXM.& . I                       7Xb . w +XMX_ . & P.{ . h -X                          ",
"                          1.. & G.aXC . 7 +XlXI . & M.                    d.@ . <.MX!.; . W jX-.. . d.                          ",
"                        <Xh . b tXvX( . . ..MXP.; . S                   5Xb . t -XvX( . . { MX[.6 . C tX                        ",
"                        g.@ . r.  `.6 . . 6 [.vX( . & m.                r.@ . 6.MXP.; . . 7 |.MX( . ; M.                        ",
"                        C . t -XMX@.. . . . _ MX^.2 . C tX            -Xh . d <XlXW . . . . <.MXL.& . W                         ",
"                      Z.; . #.MX*Xt . h S . 2 !.MX... @ k.            w.. @ r.MXG.; . I d . d <XaXS . 2 Y.                      ",
"                      ~ . 2 ^.MXw.. . y.^.; . ( vX|.w . b 7X        -Xh . l 7XjXI . 2 +X6.. . d.MXk.@ . ..                      ",
"                    ^.6 . W vXqXb . 7 +XMX~ . ; P.MX-.. @ d.        6.@ . d.MXZ.& . { MX[.6 . m iX7Xh . w |.                    ",
"                    @.. & M.MXm.& . _     P.2 . W lX*Xt . b 5X    *Xd . m qXaXS . 7 ^.    ( . & M.MX6.. . 1.                    ",
"                  #Xt . m tXjXH . ; P.      _ . & G.MXw.. . r.    <.. @ c.MXM.& . @.      G.; . W lX#Xw . h <X                  ",
"                  w.. @ y.MXY.; . H         ^.6 . H aX7Xl . h qX<Xt . C iXiXC . 7 |.        S . ; !.MX... @ d.                  ",
"                7Xb . t <XMX_ . & k.          ... & M.MXd.@ . d.w.. & M.MXc.@ . -.          g.@ . ..MX^.2 . C                   ",
"                c.@ . #.MX|.7 . l 7X          [.w . S aXtXm . 6 6 . H aXtXm . t +X          5Xh . w #XvXW . & Z.                ",
"                H . 6 [.MX-.. . 6.              #.. @ c.MXc.& . . ; G.MXg.@ . 1.              6.. . 1.MXZ.& . W                 ",
"              L.2 . ~ vX<Xd . w +X              #Xt . m tXaXH . . W lXqXb . d *X              |.w . h 7XiXm . 6 !.              ",
"              _ . & Z.MXd.. . @.                  1.. @ g.MXG.; ; L.MXy.. . w.                  { . @ g.MXd.. . ..              ",
"            [.7 . C iXiXm . 2 Y.                  *Xh . l 7XlXH H vX5Xh . l <X                  Y.2 . C aX<Xh . w +X            ",
"            <.. . y.MXZ.& . W                       w.. @ y.        r.. @ y.                      I . & G.MX<.. . 1.            ",
"          -Xd . d <XlXW . & M.                      5Xl . h -X    -Xd . b 5X                      m.& . ~ vX|.7 . l <X          ",
"          y.@ . -.MX!.2 . m tX                        d.@ . 6.    6.. @ g.                        qXm . 6 ^.MX{ . @ g.          ",
"        qXm . 7 [.MX... @ y.                          7Xm . d <X<Xt . C qX                          r.. . @.MXY.; . C           ",
"        M.& . ( MX#Xw . d *X                            k.@ . r.y.. & m.                            *Xd . w *XlXI . & Z.        ",
"        W . ; G.MX6.. . #.                              tXS . 6 6 . S                                 #.. . w.MXm.@ . ~         ",
"      Y.2 . C aX7Xl . 7 `.                                M.& . . ; M.                                `.6 . h qXtXb . 6 !.      ",
"      ... @ d.MXk.@ . (                                     I . . I                                     ( . @ c.MXr.@ . @.      ",
"    +Xw . d 5XaXS . ; G.                                    G.; ; G.                                    G.; . S jX-Xt . w +X    ",
"    #.. . -.MXM.& . C                                         H H                                         C . & M.MX@.. . #.    ",
"    I l m !.  ..l l g.                                                                                    d.b l ..  Y.m b I     ",
"                                                                                                                                ",
"                                                                                                                                ",
"                                                                                                                                ",
"                                                                                                                                ",
"                                                                                                                                ",
"                                                                                                                                ",
"                                                                                                                                ",
"                                                                                                                                ",
"                                                                                                                                ",
"                                                                                                                                ",
"                                                                                                                                ",
"                                                                                                                                "
};
