/* XPM */
static char *_48c719b3bee46a7e735c949d6874afbGirpmHNZiV8l0zfC[] = {
/* columns rows colors chars-per-pixel */
"32 32 141 2 ",
"   c None",
".  c #101010",
"X  c #111111",
"o  c gray7",
"O  c #131313",
"+  c gray8",
"@  c #151515",
"#  c gray9",
"$  c #181818",
"%  c #191919",
"&  c gray10",
"*  c #1B1B1B",
"=  c gray11",
"-  c #1D1D1D",
";  c #1E1E1E",
":  c gray12",
">  c #202020",
",  c gray13",
"<  c #222222",
"1  c #232323",
"2  c gray14",
"3  c #252525",
"4  c gray15",
"5  c #272727",
"6  c #282828",
"7  c gray16",
"8  c #2A2A2A",
"9  c gray17",
"0  c #2C2C2C",
"q  c gray18",
"w  c #2F2F2F",
"e  c gray19",
"r  c #313131",
"t  c #323232",
"y  c gray20",
"u  c #343434",
"i  c #353535",
"p  c gray21",
"a  c #373737",
"s  c gray22",
"d  c #3A3A3A",
"f  c #3C3C3C",
"g  c gray24",
"h  c #3E3E3E",
"j  c #3F3F3F",
"k  c gray25",
"l  c gray26",
"z  c #434343",
"x  c #444444",
"c  c #464646",
"v  c gray28",
"b  c #484848",
"n  c gray29",
"m  c #4B4B4B",
"M  c #4C4C4C",
"N  c gray30",
"B  c gray31",
"V  c #505050",
"C  c #515151",
"Z  c gray32",
"A  c #535353",
"S  c gray33",
"D  c #555555",
"F  c #565656",
"G  c gray34",
"H  c #585858",
"J  c #5A5A5A",
"K  c #5B5B5B",
"L  c gray36",
"P  c #5D5D5D",
"I  c gray37",
"U  c #5F5F5F",
"Y  c #606060",
"T  c gray38",
"R  c #626262",
"E  c gray39",
"W  c #646464",
"Q  c #656565",
"!  c #676767",
"~  c DimGray",
"^  c #6A6A6A",
"/  c gray42",
"(  c #6C6C6C",
")  c #6D6D6D",
"_  c gray43",
"`  c gray44",
"'  c #717171",
"]  c #727272",
"[  c gray45",
"{  c #747474",
"}  c gray46",
"|  c #767676",
" . c #777777",
".. c gray47",
"X. c #7B7B7B",
"o. c #7C7C7C",
"O. c gray49",
"+. c #7E7E7E",
"@. c #808080",
"#. c #818181",
"$. c #838383",
"%. c #848484",
"&. c #868686",
"*. c gray53",
"=. c #888888",
"-. c #898989",
";. c gray54",
":. c #8B8B8B",
">. c gray55",
",. c #8E8E8E",
"<. c gray56",
"1. c #909090",
"2. c #929292",
"3. c gray58",
"4. c #989898",
"5. c gray60",
"6. c #9B9B9B",
"7. c #9D9D9D",
"8. c #9F9F9F",
"9. c #A0A0A0",
"0. c #A4A4A4",
"q. c #A5A5A5",
"w. c gray65",
"e. c #A9A9A9",
"r. c #AAAAAA",
"t. c gray67",
"y. c #ACACAC",
"u. c gray68",
"i. c #AFAFAF",
"p. c #B1B1B1",
"a. c #B2B2B2",
"s. c #B4B4B4",
"d. c gray71",
"f. c #B6B6B6",
"g. c #B7B7B7",
"h. c gray72",
"j. c gray73",
"k. c gray74",
"l. c gray75",
"z. c #C0C0C0",
"x. c gray76",
/* pixels */
"                                                                ",
"                                                                ",
"                                                                ",
"                                                                ",
"                                                                ",
"                                                                ",
"            Z     )                         '     F             ",
"            s q l.2 E                     F 7 x.2 j             ",
"            <.$ ' $ ,                     $ 2 ' $               ",
"              l u $.# P                 F , 1.r m               ",
"              7.$ -.P -                 $ X.+.- w.              ",
"              Q N q i.$ J             N 7 d.2 N ^               ",
"              - <.- +.^ -             $ +.' 2 $.$               ",
"            m q x.- , a., Z         N q j.$ , j.2 Z             ",
"            - X.X.X X | | $         $ *.) # X $.^ -             ",
"          P , l.q N ) , d.7 N     c r j.- ' N r a.# Q           ",
"          2 E 1.X <.  - ^ *.$   9.$ 1.Q 2   -.# 3.Z 7           ",
"        ' # a.j r     E - d.r F Z u d.- Q     q l w.X X.        ",
"        r c r.# )       2 E 1.X X 5.P 2       ) # r.s r         ",
"      *.# 5.F ,         ^ - d.s j a.- )         , J 1.# -.      ",
"      l r j.$ P           7 J 7.7.F 7           P $ d.7 c       ",
"      # $.) $             ' $ i.r.$ |             $ ' X.#       ",
"    Z , j.2 m               q F Z r               c 7 d.- F     ",
"    - Q -.X <.              +.X X +.              1.X *.E -     ",
"  E # i.r u                   u u                   u r i.X E   ",
"  j m w.7 X.                                        X.7 w.m j   ",
"                                                                ",
"                                                                ",
"                                                                ",
"                                                                ",
"                                                                ",
"                                                                "
};
